# xmcd CD database file
#
# Track frame offsets:
#	150
#	16374
#	30089
#	45052
#	60044
#	79083
#	95406
#	111240
#	127608
#	143970
#	157316
#	173159
#
# Disc length: 2554 seconds
#
# Revision: 0
# Processed by: cddbd v1.5.2PL0 Copyright (c) Steve Scherf et al.
# Submitted via: CDex 1.72
#
DISCID=8209f80c
DTITLE=McNulty, Shane [CDn-15-Cold Beer and Barbwire-cty) - Cold Beer and Barbwire
DYEAR=2015
DGENRE=Country
TTITLE0=8 Seconds
TTITLE1=Mexico
TTITLE2=Someday
TTITLE3=Take It On Down
TTITLE4=Why Did You Go
TTITLE5=You Make It Right
TTITLE6=Numb
TTITLE7=This Farm
TTITLE8=Without You
TTITLE9=Believin'
TTITLE10=Lovin' You
TTITLE11=Nanna's Song
EXTD=YEAR: 2015
EXTT0=
EXTT1=
EXTT2=
EXTT3=
EXTT4=
EXTT5=
EXTT6=
EXTT7=
EXTT8=
EXTT9=
EXTT10=
EXTT11=
PLAYORDER=
